<svg xmlns="http://www.w3.org/2000/svg" version="1.1" xmlns:xlink="http://www.w3.org/1999/xlink" xmlns:svgjs="http://svgjs.dev/svgjs" width="1000" height="1000" viewBox="0 0 1000 1000"><rect width="1000" height="1000" fill="#000000"></rect><g transform="matrix(0.7,0,0,0.7,149.57575757575756,284.86448671646576)"><svg viewBox="0 0 396 247" data-background-color="#ffffff" preserveAspectRatio="xMidYMid meet" height="623" width="1000" xmlns="http://www.w3.org/2000/svg" xmlns:xlink="http://www.w3.org/1999/xlink"><g id="tight-bounds" transform="matrix(1,0,0,1,0.2400000000000091,-0.09999999999999432)"><svg viewBox="0 0 395.52 247.2" height="247.2" width="395.52"><g><svg></svg></g><g><svg viewBox="0 0 395.52 247.2" height="247.2" width="395.52"><g transform="matrix(1,0,0,1,75.54432,60.77638911447084)"><svg viewBox="0 0 244.43135999999998 125.64722177105831" height="125.64722177105831" width="244.43135999999998"><g><svg viewBox="0 0 244.43135999999998 125.64722177105831" height="125.64722177105831" width="244.43135999999998"><g><svg viewBox="0 0 244.43135999999998 125.64722177105831" height="125.64722177105831" width="244.43135999999998"><g><svg viewBox="0 0 244.43135999999998 125.64722177105831" height="125.64722177105831" width="244.43135999999998"><g id="textblocktransform"><svg viewBox="0 0 244.43135999999998 125.64722177105831" height="125.64722177105831" width="244.43135999999998" id="textblock"><g><svg viewBox="0 0 244.43135999999998 125.64722177105831" height="125.64722177105831" width="244.43135999999998"><g transform="matrix(1,0,0,1,0,0)"><svg width="244.43135999999998" viewBox="3.4000000953674316 -35 69.44999694824219 35.70000076293945" height="125.64722177105831" data-palette-color="#636365"><path d="M20.45-20.75Q27.05-18.85 30.7-16.2 34.35-13.55 34.35-9.15L34.35-9.15Q34.35-6.1 32.8-3.9 31.25-1.7 28.55-0.53 25.85 0.65 22.45 0.65L22.45 0.65Q19.25 0.65 16.3-0.6 13.35-1.85 10.45-4.15L10.45-4.15 10.45-0.05 3.4-0.05 3.4-12.55 8.4-12.8Q11-9.65 14.9-7.68 18.8-5.7 21.9-5.7L21.9-5.7Q23.75-5.7 24.83-6.35 25.9-7 25.9-8.3L25.9-8.3Q25.9-9.85 23.45-11.15 21-12.45 14.95-14.1L14.95-14.1Q8.95-15.75 6.2-18.43 3.45-21.1 3.45-25.15L3.45-25.15Q3.45-28.1 5.1-30.33 6.75-32.55 9.45-33.77 12.15-35 15.2-35L15.2-35Q21.35-35 25.5-31.15L25.5-31.15 25.5-34.3 32.55-34.3 32.55-22.15 27.8-21.9Q26.15-25.1 23.23-26.88 20.3-28.65 17.25-28.65L17.25-28.65Q14.85-28.65 13.38-27.8 11.9-26.95 11.9-25.5L11.9-25.5Q11.9-24.1 13.75-23.08 15.6-22.05 20.45-20.75L20.45-20.75ZM56.85-28.65Q53.8-28.65 51.37-27.3 48.95-25.95 47.52-23.35 46.1-20.75 46.1-17.15L46.1-17.15Q46.1-13.85 47.47-11.28 48.85-8.7 51.3-7.28 53.75-5.85 56.95-5.85L56.95-5.85Q59.8-5.85 61.82-6.45 63.85-7.05 65.6-8.15L65.6-8.15 65.6-12.65 56.45-12.65 56.45-18.6 72.85-18.6 72.85-4.65Q70.15-2.3 65.95-0.8 61.75 0.7 56.95 0.7L56.95 0.7Q51.05 0.7 46.67-1.65 42.3-4 39.97-8.05 37.65-12.1 37.65-17.15L37.65-17.15Q37.65-22.05 39.92-26.15 42.2-30.25 46.12-32.63 50.05-35 54.75-35L54.75-35Q58.05-35 60.82-34.02 63.6-33.05 65.75-31.2L65.75-31.2 65.75-34.3 72.85-34.3 72.85-22.9 67.55-22.55Q66-25.05 63.22-26.85 60.45-28.65 56.85-28.65L56.85-28.65Z" opacity="1" transform="matrix(1,0,0,1,0,0)" fill="#ffffff" class="wordmark-text-0" data-fill-palette-color="primary" id="text-0"></path></svg></g></svg></g></svg></g></svg></g><g></g></svg></g></svg></g></svg></g><g><path d="M117.866 31.114A122.216 122.216 0 0 1 277.654 31.114L266.323 31.114A110.885 110.885 0 0 0 129.197 31.114L117.866 31.114M117.866 216.086A122.216 122.216 0 0 0 277.654 216.086L266.323 216.086A110.885 110.885 0 0 1 129.197 216.086L117.866 216.086" fill="#ffffff" stroke="transparent" data-fill-palette-color="tertiary"></path></g></svg></g><defs></defs></svg><rect width="395.52" height="247.2" fill="none" stroke="none" visibility="hidden"></rect></g></svg></g></svg>